<svg width="11" height="10" fill="none" xmlns="http://www.w3.org/2000/svg"><path d="M11 7.898c0-.05 0-.1-.023-.15-.055-.149-.438-.305-.594-.376-.445-.227-.899-.447-1.336-.682-.203-.113-.453-.326-.695-.326-.477 0-1.172 1.285-1.594 1.285-.211 0-.485-.177-.672-.277C4.664 6.655 3.68 5.76 2.89 4.467c-.11-.17-.305-.419-.305-.61C2.586 3.473 4 2.84 4 2.407c0-.22-.234-.447-.36-.631-.257-.398-.5-.81-.75-1.215-.078-.142-.25-.49-.413-.54C2.422 0 2.367 0 2.313 0c-.282 0-.829.114-1.086.22-.383.15-.633.547-.829.867-.25.419-.398.845-.398 1.32 0 .661.297 1.258.54 1.861.17.434.382.853.647 1.243.82 1.208 2.422 2.664 3.75 3.41.43.24.891.433 1.368.589.664.22 1.32.49 2.047.49.523 0 .992-.135 1.453-.362.351-.178.789-.405.953-.753.117-.234.242-.732.242-.987Z" fill="black"/></svg>
