<svg width="290" height="92" fill="none" xmlns="http://www.w3.org/2000/svg"><path d="M5.331 89.465c-1.043 0-1.973-.232-2.792-.695a5.053 5.053 0 0 1-1.883-1.905A5.44 5.44 0 0 1 0 84.232c0-1.109.292-2.056.875-2.842a5.423 5.423 0 0 1 2.236-1.793A7.003 7.003 0 0 1 5.92 79c1.065 0 2.001.242 2.808.727a4.84 4.84 0 0 1 1.85 1.89 5.07 5.07 0 0 1 .656 2.502c0 .98-.269 1.879-.807 2.697a5.696 5.696 0 0 1-2.17 1.938 6.17 6.17 0 0 1-2.926.71Zm.555-.404c.628 0 1.189-.172 1.682-.517.504-.355.897-.867 1.177-1.534.28-.678.42-1.486.42-2.422 0-.99-.156-1.874-.47-2.649-.314-.786-.768-1.4-1.363-1.84-.594-.442-1.289-.663-2.085-.663-1.02 0-1.805.371-2.354 1.114-.55.732-.824 1.76-.824 3.085 0 1.044.162 1.98.487 2.81.337.818.79 1.459 1.362 1.922a3.083 3.083 0 0 0 1.968.694ZM32.166 89.077c.033 0 .05.032.05.097 0 .064-.017.097-.05.097h-2.59a.69.69 0 0 1-.404-.13c-.112-.086-.314-.306-.605-.662a59.312 59.312 0 0 1-1.43-1.921l-.454-.614c-.392-.549-.684-.931-.874-1.147a1.586 1.586 0 0 0-.606-.468c-.202-.097-.47-.145-.807-.145v3.779c0 .323.028.565.084.726.067.151.19.253.37.307.18.054.46.081.84.081.034 0 .051.032.051.097 0 .064-.017.097-.05.097-.392 0-.706-.006-.942-.016l-1.396-.016-1.228.016c-.224.01-.526.016-.908.016-.033 0-.05-.032-.05-.097s.017-.097.05-.097c.382 0 .662-.027.841-.08a.554.554 0 0 0 .37-.308c.067-.161.101-.403.101-.726v-7.477c0-.323-.034-.56-.1-.71a.554.554 0 0 0-.37-.308c-.169-.064-.444-.097-.825-.097-.033 0-.05-.032-.05-.096 0-.065.017-.097.05-.097l.891.016c.516.021.925.032 1.228.032.381 0 .852-.01 1.413-.032l.925-.016c.034 0 .05.032.05.097 0 .064-.017.096-.05.096-.37 0-.645.033-.824.097a.598.598 0 0 0-.37.34c-.067.15-.101.387-.101.71v3.391c.303-.01.684-.016 1.143-.016l1.766-2.325c.46-.614.69-1.125.69-1.534 0-.205-.062-.367-.185-.485s-.292-.178-.505-.178c-.022 0-.033-.032-.033-.096 0-.065.01-.097.033-.097l.774.016c.493.021.93.032 1.312.032.437 0 .891-.01 1.362-.032l.723-.016c.034 0 .05.032.05.097 0 .064-.016.096-.05.096-.493 0-1.048.173-1.665.517a5.444 5.444 0 0 0-1.564 1.292l-2.287 2.73c.437.02.796.102 1.076.242.28.129.555.339.824.63.28.29.673.775 1.178 1.453l.302.403c.471.625.835 1.093 1.093 1.405.27.313.544.56.825.743.28.183.582.28.908.291ZM46.323 89.465c-1.042 0-1.973-.232-2.791-.695a5.053 5.053 0 0 1-1.884-1.905 5.44 5.44 0 0 1-.656-2.633c0-1.109.292-2.056.875-2.842a5.423 5.423 0 0 1 2.236-1.793A7.003 7.003 0 0 1 46.912 79c1.065 0 2.001.242 2.808.727a4.84 4.84 0 0 1 1.85 1.89c.438.785.656 1.62.656 2.502 0 .98-.269 1.879-.807 2.697a5.696 5.696 0 0 1-2.17 1.938 6.17 6.17 0 0 1-2.926.71Zm.555-.404c.628 0 1.189-.172 1.682-.517.505-.355.897-.867 1.177-1.534.28-.678.42-1.486.42-2.422 0-.99-.156-1.874-.47-2.649-.314-.786-.768-1.4-1.362-1.84-.595-.442-1.29-.663-2.086-.663-1.02 0-1.805.371-2.354 1.114-.55.732-.824 1.76-.824 3.085 0 1.044.162 1.98.487 2.81.337.818.79 1.459 1.362 1.922a3.083 3.083 0 0 0 1.968.694ZM74.1 89.077c.033 0 .05.032.05.097 0 .064-.017.097-.05.097-.393 0-.707-.006-.942-.016l-1.295-.016-1.514.016c-.202.01-.476.016-.824.016-.034 0-.05-.032-.05-.097s.016-.097.05-.097c.415 0 .718-.027.908-.08.19-.055.32-.157.387-.308.067-.15.1-.392.1-.726v-3.715H65.49v3.715c0 .323.033.565.1.726.068.151.197.253.388.307.19.054.493.081.908.081.022 0 .033.032.033.097 0 .064-.01.097-.033.097-.393 0-.707-.006-.942-.016l-1.463-.016-1.262.016c-.224.01-.532.016-.925.016-.022 0-.033-.032-.033-.097s.011-.097.034-.097c.392 0 .678-.027.857-.08a.554.554 0 0 0 .37-.308c.068-.161.101-.403.101-.726v-7.477c0-.323-.033-.56-.1-.71a.554.554 0 0 0-.37-.308c-.169-.064-.444-.097-.825-.097-.033 0-.05-.032-.05-.096 0-.065.017-.097.05-.097l.908.016c.516.021.93.032 1.245.032.426 0 .92-.01 1.48-.032l.925-.016c.022 0 .033.032.033.097 0 .064-.01.096-.033.096-.404 0-.701.033-.892.097a.66.66 0 0 0-.403.34c-.068.15-.101.387-.101.71v3.278h5.432v-3.278c0-.323-.034-.56-.101-.71a.6.6 0 0 0-.387-.34c-.19-.064-.493-.097-.908-.097-.034 0-.05-.032-.05-.096 0-.065.016-.097.05-.097l.824.016c.56.021 1.065.032 1.514.032.302 0 .734-.01 1.295-.032l.941-.016c.034 0 .05.032.05.097 0 .064-.016.096-.05.096-.38 0-.667.033-.857.097a.554.554 0 0 0-.37.307c-.056.15-.084.388-.084.71v7.478c0 .323.028.565.084.726.067.151.19.253.37.307.18.054.465.081.857.081ZM95.688 89.077c.033 0 .05.032.05.097 0 .064-.017.097-.05.097-.393 0-.707-.006-.942-.016l-1.295-.016-1.514.016c-.201.01-.476.016-.824.016-.033 0-.05-.032-.05-.097s.017-.097.05-.097c.415 0 .718-.027.908-.08.191-.055.32-.157.387-.308.067-.15.101-.392.101-.726v-3.715h-5.432v3.715c0 .323.034.565.1.726.068.151.197.253.388.307.19.054.493.081.908.081.022 0 .034.032.034.097 0 .064-.012.097-.034.097-.392 0-.706-.006-.942-.016l-1.463-.016-1.261.016c-.225.01-.533.016-.925.016-.023 0-.034-.032-.034-.097s.011-.097.034-.097c.392 0 .678-.027.857-.08a.554.554 0 0 0 .37-.308c.068-.161.101-.403.101-.726v-7.477c0-.323-.033-.56-.1-.71a.554.554 0 0 0-.37-.308c-.169-.064-.444-.097-.825-.097-.033 0-.05-.032-.05-.096 0-.065.017-.097.05-.097l.908.016c.516.021.931.032 1.245.032.426 0 .92-.01 1.48-.032l.925-.016c.022 0 .034.032.034.097 0 .064-.012.096-.034.096-.404 0-.7.033-.891.097a.66.66 0 0 0-.404.34c-.067.15-.101.387-.101.71v3.278h5.432v-3.278c0-.323-.034-.56-.1-.71a.6.6 0 0 0-.388-.34c-.19-.064-.493-.097-.908-.097-.033 0-.05-.032-.05-.096 0-.065.017-.097.05-.097l.824.016c.56.021 1.065.032 1.514.032.303 0 .734-.01 1.295-.032l.942-.016c.033 0 .05.032.05.097 0 .064-.017.096-.05.096-.382 0-.668.033-.858.097a.554.554 0 0 0-.37.307c-.056.15-.084.388-.084.71v7.478c0 .323.028.565.084.726.067.151.19.253.37.307.18.054.465.081.858.081ZM110.431 83.57c1.188 0 2.097.226 2.724.678.628.442.942 1.099.942 1.97 0 .625-.162 1.174-.487 1.648-.326.463-.78.823-1.363 1.082-.571.258-1.222.387-1.95.387a12.7 12.7 0 0 1-1.026-.048c-.146 0-.382-.005-.707-.016a13.184 13.184 0 0 0-.857-.032l-1.077.016c-.235.01-.56.016-.975.016-.034 0-.051-.032-.051-.097s.017-.097.051-.097c.381-.022.645-.048.79-.08a.451.451 0 0 0 .32-.275c.067-.151.101-.404.101-.76v-7.476c0-.356-.028-.603-.084-.743a.451.451 0 0 0-.32-.275c-.146-.043-.409-.075-.79-.097-.023 0-.034-.032-.034-.096 0-.065.011-.097.034-.097l.841.016c.47.021.897.032 1.278.032.37 0 .835-.01 1.396-.032l.958-.016c.023 0 .034.032.034.097 0 .064-.011.096-.034.096-.437.022-.74.054-.908.097a.555.555 0 0 0-.37.291c-.078.15-.118.404-.118.759v3.181c.628-.086 1.189-.129 1.682-.129Zm8.695 5.507c.033 0 .05.032.05.097 0 .064-.017.097-.05.097-.37 0-.662-.006-.875-.016l-1.278-.016-1.244.016c-.225.01-.527.016-.909.016-.022 0-.033-.032-.033-.097s.011-.097.033-.097c.359 0 .623-.027.791-.08a.497.497 0 0 0 .336-.308c.067-.161.101-.403.101-.726v-7.477c0-.323-.034-.56-.101-.71a.497.497 0 0 0-.336-.308c-.168-.064-.432-.097-.791-.097-.022 0-.033-.032-.033-.096 0-.065.011-.097.033-.097l.909.016c.515.021.93.032 1.244.032.348 0 .779-.01 1.295-.032l.858-.016c.033 0 .05.032.05.097 0 .064-.017.096-.05.096-.348 0-.606.033-.774.097a.542.542 0 0 0-.336.34c-.056.15-.084.387-.084.71v7.445c0 .334.028.576.084.726.056.151.162.253.319.307.168.054.432.081.791.081Zm-9.132-.145c.773 0 1.323-.194 1.648-.582.325-.398.488-1.017.488-1.857 0-.861-.174-1.486-.522-1.873-.336-.398-.919-.598-1.749-.598-.291 0-.661.027-1.11.081v3.86c0 .323.079.565.236.726.168.162.504.243 1.009.243ZM136.932 86.703c0-.021.022-.032.067-.032.033 0 .061.01.084.032.034.01.05.022.05.032-.112.84-.168 1.605-.168 2.294 0 .086-.017.15-.05.193-.034.033-.101.049-.202.049h-7.433c-.034 0-.051-.032-.051-.097s.017-.097.051-.097c.358 0 .616-.027.773-.08a.5.5 0 0 0 .337-.308c.056-.161.084-.403.084-.726v-7.477c0-.323-.028-.56-.084-.71a.5.5 0 0 0-.337-.308c-.168-.064-.426-.097-.773-.097-.034 0-.051-.032-.051-.096 0-.065.017-.097.051-.097h7.13c.112 0 .168.048.168.145l.034 2.148c0 .021-.034.037-.101.048-.056.011-.09 0-.101-.032-.179-.624-.482-1.087-.908-1.389-.426-.301-.987-.452-1.682-.452h-.504c-.337 0-.583.07-.74.21-.157.14-.236.355-.236.646v3.294h1.396c.65 0 1.149-.107 1.497-.323.348-.215.521-.516.521-.904 0-.032.028-.049.084-.049.068 0 .101.017.101.049l-.017 1.453.017.775c.023.367.034.657.034.873 0 .021-.034.032-.101.032s-.101-.01-.101-.032c0-.442-.179-.786-.538-1.034-.348-.258-.852-.388-1.514-.388h-1.379v3.65c0 .312.062.544.185.695.124.15.32.226.589.226h.555c.874 0 1.575-.173 2.102-.517.527-.345.914-.878 1.161-1.599ZM171.628 89.077c.034 0 .051.032.051.097 0 .064-.017.097-.051.097-.392 0-.706-.006-.941-.016l-1.295-.016-1.514.016c-.202.01-.477.016-.824.016-.034 0-.051-.032-.051-.097s.017-.097.051-.097c.415 0 .717-.027.908-.08.191-.055.32-.157.387-.308.067-.15.101-.392.101-.726v-6.605l-6.727 8.09c-.034.033-.118.049-.252.049-.214 0-.32-.038-.32-.113v-8.898c0-.323-.034-.56-.101-.71a.554.554 0 0 0-.37-.308c-.179-.064-.46-.097-.841-.097-.033 0-.05-.032-.05-.096 0-.065.017-.097.05-.097l.942.016c.561.021.992.032 1.295.032.448 0 .953-.01 1.514-.032l.824-.016c.033 0 .05.032.05.097 0 .064-.017.096-.05.096-.415 0-.718.033-.909.097-.19.054-.319.156-.386.307-.068.15-.101.388-.101.71v6.67l6.727-8.09c.033-.033.117-.049.252-.049.078 0 .151.01.219.032.067.022.101.049.101.081v8.834c0 .323.033.565.1.726.068.151.191.253.37.307.18.054.46.081.841.081ZM185.985 83.845c.941.064 1.704.328 2.287.791.583.452.874 1.039.874 1.76 0 .582-.196 1.11-.588 1.583-.393.463-.92.829-1.581 1.098a5.916 5.916 0 0 1-2.17.388c-.504 0-.986-.054-1.446-.162-.46-.108-.813-.258-1.059-.452a.58.58 0 0 1-.185-.13.72.72 0 0 1-.051-.242l-.202-2.18c0-.021.028-.037.084-.048.068-.01.107 0 .118.032.09.55.286 1.05.589 1.502.314.442.695.791 1.143 1.05.449.247.92.371 1.413.371.594 0 1.043-.242 1.345-.727.314-.495.471-1.098.471-1.808 0-.872-.241-1.529-.723-1.97-.471-.453-1.144-.679-2.018-.679-.045 0-.067-.032-.067-.097 0-.064.022-.096.067-.096.807 0 1.407-.205 1.799-.614.404-.41.606-.985.606-1.728s-.135-1.308-.404-1.696c-.258-.387-.644-.581-1.16-.581-.381 0-.763.13-1.144.388a3.524 3.524 0 0 0-1.009 1.033c-.291.442-.51.937-.656 1.486-.011.032-.045.043-.101.032-.056-.01-.084-.027-.084-.048l.236-2.293c.022-.13.045-.216.067-.259.022-.043.084-.08.185-.113a8.373 8.373 0 0 1 2.691-.436c.74 0 1.362.102 1.867.307.504.194.88.457 1.126.791.258.323.387.678.387 1.066 0 .614-.275 1.168-.824 1.663a4.436 4.436 0 0 1-1.883 1.018ZM210.386 88.835c.101 0 .157.01.168.032.023.01.034.065.034.162a8.8 8.8 0 0 1-.034.452 20.06 20.06 0 0 0-.134 2.438c0 .054-.034.081-.101.081-.056 0-.084-.027-.084-.08 0-.862-.325-1.519-.976-1.97-.639-.453-1.564-.68-2.774-.68h-3.734c-1.065 0-1.883.227-2.455.68-.561.451-.841 1.108-.841 1.97 0 .053-.034.08-.101.08s-.101-.027-.101-.08c0-.905-.039-1.67-.118-2.294a3.752 3.752 0 0 1-.05-.597c0-.087.005-.14.017-.162.022-.022.073-.032.151-.032h1.144l4.204-9.722c.022-.032.079-.048.168-.048.09 0 .14.016.152.048l4.641 9.722h.824Zm-9.451 0h6.542l-3.448-7.219-3.094 7.219ZM227.956 86.703c0-.021.023-.032.068-.032.033 0 .061.01.084.032.033.01.05.022.05.032-.112.84-.168 1.605-.168 2.294 0 .086-.017.15-.05.193-.034.033-.101.049-.202.049h-7.434c-.033 0-.05-.032-.05-.097s.017-.097.05-.097c.359 0 .617-.027.774-.08a.497.497 0 0 0 .336-.308c.056-.161.084-.403.084-.726v-7.477c0-.323-.028-.56-.084-.71a.497.497 0 0 0-.336-.308c-.168-.064-.426-.097-.774-.097-.033 0-.05-.032-.05-.096 0-.065.017-.097.05-.097h7.131c.112 0 .168.048.168.145l.034 2.148c0 .021-.034.037-.101.048-.056.011-.09 0-.101-.032-.179-.624-.482-1.087-.908-1.389-.426-.301-.987-.452-1.682-.452h-.504c-.337 0-.583.07-.74.21-.157.14-.236.355-.236.646v3.294h1.396c.65 0 1.149-.107 1.497-.323.347-.215.521-.516.521-.904 0-.032.028-.049.084-.049.067 0 .101.017.101.049l-.017 1.453.017.775c.023.367.034.657.034.873 0 .021-.034.032-.101.032s-.101-.01-.101-.032c0-.442-.179-.786-.538-1.034-.348-.258-.852-.388-1.514-.388h-1.379v3.65c0 .312.062.544.185.695.123.15.32.226.589.226h.555c.874 0 1.575-.173 2.102-.517.527-.345.914-.878 1.16-1.599ZM249.697 89.077c.056 0 .084.032.084.097 0 .064-.028.097-.084.097-.224 0-.571-.011-1.042-.032a27.843 27.843 0 0 0-1.06-.033c-.28 0-.622.011-1.026.032a17.01 17.01 0 0 1-.908.033c-.045 0-.067-.032-.067-.097s.022-.097.067-.097c.292 0 .499-.027.622-.08a.332.332 0 0 0 .202-.324c0-.183-.112-.49-.336-.92l-3.33-6.314-2.607 5.539a2.07 2.07 0 0 0-.218.872c0 .387.14.689.42.904.292.215.678.323 1.16.323.057 0 .085.032.085.097 0 .064-.028.097-.085.097-.201 0-.493-.011-.874-.032a22.417 22.417 0 0 0-1.11-.033c-.303 0-.667.011-1.093.032-.381.022-.69.033-.925.033-.045 0-.067-.032-.067-.097s.022-.097.067-.097c.314 0 .577-.06.79-.178.213-.129.426-.35.639-.662.213-.323.466-.796.757-1.42l3.65-7.704c.022-.032.072-.048.151-.048.09 0 .14.016.151.048l4.205 7.945c.392.765.717 1.292.975 1.583.258.29.527.436.807.436ZM270.75 89.077c.033 0 .05.032.05.097 0 .064-.017.097-.05.097-.393 0-.706-.006-.942-.016l-1.295-.016-1.513.016c-.202.01-.477.016-.825.016-.033 0-.05-.032-.05-.097s.017-.097.05-.097c.415 0 .718-.027.909-.08.19-.055.319-.157.386-.308.068-.15.101-.392.101-.726v-6.605l-6.727 8.09c-.033.033-.117.049-.252.049-.213 0-.319-.038-.319-.113v-8.898c0-.323-.034-.56-.101-.71a.556.556 0 0 0-.37-.308c-.18-.064-.46-.097-.841-.097-.034 0-.051-.032-.051-.096 0-.065.017-.097.051-.097l.942.016c.56.021.992.032 1.294.032.449 0 .953-.01 1.514-.032l.824-.016c.034 0 .051.032.051.097 0 .064-.017.096-.051.096-.415 0-.717.033-.908.097-.191.054-.32.156-.387.307-.067.15-.101.388-.101.71v6.67l6.727-8.09c.034-.033.118-.049.253-.049.078 0 .151.01.218.032s.101.049.101.081v8.834c0 .323.034.565.101.726.067.151.191.253.37.307.179.054.46.081.841.081ZM289.966 89.077c.023 0 .034.032.034.097 0 .064-.011.097-.034.097-.403 0-.723-.006-.958-.016l-1.295-.016-1.261.016c-.214.01-.505.016-.875.016-.034 0-.05-.032-.05-.097s.016-.097.05-.097c.359 0 .617-.027.774-.08a.497.497 0 0 0 .336-.308c.056-.15.084-.392.084-.726v-3.876c-.415.086-.807.307-1.177.662-.359.355-.785.958-1.278 1.809a59.168 59.168 0 0 1-1.211 1.97c-.224.355-.381.57-.471.646a.623.623 0 0 1-.37.097h-2.203c-.023 0-.034-.032-.034-.097s.011-.097.034-.097c.347-.01.628-.124.841-.34.213-.214.504-.629.874-1.243l.807-1.26c.449-.72.903-1.237 1.363-1.55.459-.322 1.003-.538 1.631-.645-1.088-.097-1.917-.356-2.489-.776-.572-.42-.858-.969-.858-1.647 0-.484.152-.915.454-1.292.314-.377.74-.667 1.279-.872.538-.215 1.143-.323 1.816-.323.246 0 .538.016.874.049.135.01.292.021.471.032.18.01.376.016.589.016.347 0 .779-.01 1.295-.032l.958-.016c.023 0 .034.032.034.097 0 .064-.011.096-.034.096-.414 0-.712.033-.891.097-.179.054-.297.156-.353.307-.056.14-.084.377-.084.71v7.478c0 .334.028.576.084.726.056.151.174.253.353.307.179.054.477.081.891.081Zm-5.802-7.865c0 .776.202 1.39.606 1.841.403.453.992.679 1.766.679h.235v-3.214c0-.786-.342-1.179-1.026-1.179-1.054 0-1.581.625-1.581 1.873ZM173.725 48.257c-3.551 0-6.72-.648-9.508-1.944-2.749-1.326-4.887-3.105-6.415-5.335-1.489-2.261-2.234-4.718-2.234-7.37 0-3.105.993-5.758 2.979-7.958 1.985-2.23 4.525-3.904 7.618-5.019 3.131-1.115 6.319-1.673 9.565-1.673 3.628 0 6.816.678 9.565 2.035 2.75 1.326 4.85 3.09 6.301 5.29 1.489 2.2 2.234 4.537 2.234 7.008 0 2.743-.917 5.26-2.75 7.551-1.833 2.291-4.295 4.1-7.388 5.426-3.055 1.326-6.377 1.99-9.967 1.99Zm1.89-1.13c2.139 0 4.048-.482 5.728-1.447 1.718-.995 3.055-2.426 4.01-4.295.954-1.9 1.432-4.16 1.432-6.782 0-2.774-.535-5.245-1.604-7.416-1.069-2.2-2.616-3.918-4.64-5.154-2.024-1.236-4.391-1.854-7.102-1.854-3.475 0-6.148 1.04-8.019 3.12-1.871 2.05-2.807 4.928-2.807 8.636 0 2.924.554 5.546 1.661 7.867 1.146 2.291 2.693 4.085 4.64 5.38 1.986 1.297 4.219 1.945 6.701 1.945ZM234.933 47.086c.099 0 .148.09.148.27 0 .18-.049.27-.148.27a67.3 67.3 0 0 1-2.777-.045l-3.816-.045-4.462.045c-.595.03-1.404.045-2.429.045-.099 0-.149-.09-.149-.27 0-.18.05-.27.149-.27 1.223 0 2.115-.076 2.677-.226.562-.15.942-.436 1.14-.856.198-.421.297-1.097.297-2.029V25.54l-19.828 22.583c-.099.09-.347.136-.744.136-.628 0-.942-.106-.942-.316V23.105c0-.901-.099-1.562-.297-1.983-.198-.42-.562-.706-1.091-.857-.528-.18-1.355-.27-2.478-.27-.099 0-.149-.09-.149-.27 0-.18.05-.27.149-.27l2.776.044c1.652.06 2.925.09 3.817.09 1.322 0 2.809-.03 4.461-.09l2.429-.045c.099 0 .149.09.149.27 0 .18-.05.271-.149.271-1.222 0-2.115.09-2.677.27-.561.15-.941.436-1.14.857-.198.42-.297 1.082-.297 1.983v18.616l19.829-22.582c.099-.09.347-.136.743-.136.231 0 .446.03.645.09.198.06.297.136.297.226v24.656c0 .902.099 1.578.297 2.029.199.42.562.706 1.091.856.529.15 1.355.226 2.479.226ZM143.159 0h2.413v67.216h-2.413z" fill="#7E7753"/><path fill-rule="evenodd" clip-rule="evenodd" d="M106.966 51.36h1.551v1.55h-28.61v-1.55h1.207V19.992l19.475-6.032v6.032l6.377 1.724V51.36ZM85.939 22.75h-2.412v1.723h2.412V22.75Zm-2.412 3.102h2.412v1.724h-2.412v-1.724Zm2.412 3.102h-2.412v1.724h2.412v-1.724Zm-2.412 3.103h2.412v1.723h-2.412v-1.723Zm2.412 3.102h-2.412v1.723h2.412V35.16Zm-2.412 3.102h2.412v1.724h-2.412V38.26Zm2.412 3.102h-2.412v1.724h2.412v-1.724Zm-2.412 3.103h2.412v1.723h-2.412v-1.723Zm2.412 3.102h-2.412v1.724h2.412v-1.724Zm1.724-24.818h2.413v1.723h-2.413V22.75Zm2.413 3.102h-2.413v1.724h2.413v-1.724Zm-2.413 3.102h2.413v1.724h-2.413v-1.724Zm2.413 3.103h-2.413v1.723h2.413v-1.723Zm-2.413 3.102h2.413v1.723h-2.413V35.16Zm2.413 3.102h-2.413v1.724h2.413V38.26Zm-2.413 3.102h2.413v1.724h-2.413v-1.724Zm2.413 3.103h-2.413v1.723h2.413v-1.723Zm-2.413 3.102h2.413v1.724h-2.413v-1.724Zm6.55-24.818h-2.414v1.723h2.413V22.75Zm-2.414 3.102h2.413v1.724H91.8v-1.724Zm2.413 3.102H91.8v1.724h2.413v-1.724ZM91.8 32.057h2.413v1.723H91.8v-1.723Zm2.413 3.102H91.8v1.723h2.413V35.16ZM91.8 38.26h2.413v1.724H91.8V38.26Zm2.413 3.102H91.8v1.724h2.413v-1.724ZM91.8 44.467h2.413v1.723H91.8v-1.723Zm2.413 3.102H91.8v1.724h2.413v-1.724Zm1.724-24.818h2.412v1.723h-2.412V22.75Zm2.412 3.102h-2.412v1.724h2.412v-1.724Zm-2.412 3.102h2.412v1.724h-2.412v-1.724Zm2.412 3.103h-2.412v1.723h2.412v-1.723Zm-2.412 3.102h2.412v1.723h-2.412V35.16Zm2.412 3.102h-2.412v1.724h2.412V38.26Zm-2.412 3.102h2.412v1.724h-2.412v-1.724Zm2.412 3.103h-2.412v1.723h2.412v-1.723Zm-2.412 3.102h2.412v1.724h-2.412v-1.724Zm8.617-24.818h-2.413v1.723h2.413V22.75Zm-2.413 3.102h2.413v1.724h-2.413v-1.724Zm2.413 3.102h-2.413v1.724h2.413v-1.724Zm-2.413 3.103h2.413v1.723h-2.413v-1.723Zm2.413 3.102h-2.413v1.723h2.413V35.16Zm-2.413 3.102h2.413v1.724h-2.413V38.26Zm2.413 3.102h-2.413v1.724h2.413v-1.724Zm-2.413 3.103h2.413v1.723h-2.413v-1.723Zm2.413 3.102h-2.413v1.724h2.413v-1.724Z" fill="#7E7753"/></svg>
