<svg width="19" height="11" fill="none" xmlns="http://www.w3.org/2000/svg"><path d="M18.973.795s-.138-.401-.999-.29l-2.849.02c-.217-.03-.376.06-.376.06s-.168.09-.247.31a18.636 18.636 0 0 1-1.059 2.26c-1.266 2.188-1.78 2.308-1.988 2.168-.485-.312-.356-1.265-.356-1.948 0-2.128.316-3.011-.623-3.242-.307-.07-.534-.12-1.336-.13-1.019-.01-1.88 0-2.364.24-.326.161-.574.522-.425.542.188.03.613.12.84.432 0 0 .248.412.287 1.315.11 2.5-.395 2.81-.395 2.81-.386.212-1.059-.14-2.048-2.208 0 0-.574-1.024-1.019-2.148-.08-.21-.237-.321-.237-.321S3.6.525 3.343.485l-2.71.02c-.416 0-.564.19-.564.19s-.148.16-.01.492c2.117 5.05 4.53 7.579 4.53 7.579s2.207 2.339 4.71 2.178h1.137c.346-.03.524-.22.524-.22s.159-.181.149-.513c-.02-1.546.692-1.777.692-1.777.693-.22 1.583 1.496 2.533 2.159 0 0 .722.502 1.266.391l2.532-.04c1.336-.01.703-1.134.703-1.134-.05-.09-.366-.783-1.89-2.219-1.582-1.495-1.375-1.255.544-3.844 1.168-1.576 1.633-2.54 1.484-2.952Z" fill="#fff"/></svg>
