<svg width="16" height="13" fill="none" xmlns="http://www.w3.org/2000/svg"><path d="M16 1.544a6.572 6.572 0 0 1-1.888.508A3.272 3.272 0 0 0 15.553.244c-.63.376-1.34.65-2.08.792A3.27 3.27 0 0 0 11.075 0a3.278 3.278 0 0 0-3.28 3.28c0 .254.031.508.082.752A9.32 9.32 0 0 1 1.117.599 3.257 3.257 0 0 0 .67 2.255c0 1.137.579 2.143 1.462 2.732A3.302 3.302 0 0 1 .65 4.57v.04a3.28 3.28 0 0 0 2.63 3.22 3.466 3.466 0 0 1-.864.112 4.13 4.13 0 0 1-.619-.05 3.285 3.285 0 0 0 3.066 2.274 6.566 6.566 0 0 1-4.071 1.402 6.77 6.77 0 0 1-.792-.04A9.264 9.264 0 0 0 5.036 13c6.03 0 9.33-4.997 9.33-9.334 0-.142 0-.284-.01-.426A7.051 7.051 0 0 0 16 1.544Z" fill="#7D4670"/></svg>
